<svg width="64" height="64" viewBox="0 0 64 64" fill="none" xmlns="http://www.w3.org/2000/svg">
  <defs>
    <linearGradient id="brandGrad" x1="0" y1="0" x2="64" y2="64" gradientUnits="userSpaceOnUse">
      <stop stop-color="#005B96"/>
      <stop offset="0.55" stop-color="#0088A9"/>
      <stop offset="1" stop-color="#4CAF50"/>
    </linearGradient>
  </defs>
  <!-- White circular background -->
  <circle cx="32" cy="32" r="31" fill="#FFFFFF"/>
  <!-- Brand gradient ring -->
  <circle cx="32" cy="32" r="30" stroke="url(#brandGrad)" stroke-width="2.5" fill="none"/>
  <!-- Stylized "B" mark for Buy The Way Journeys -->
  <path d="M22 18h12c5 0 8 3 8 7 0 3-2 5-4 6 3 1 5 3 5 7 0 5-3 8-9 8H22V18zm6 11h6c2 0 3-1 3-3s-1-3-3-3h-6v6zm0 12h7c2 0 4-1 4-3s-1-3-4-3h-7v6z" fill="url(#brandGrad)"/>
</svg>
